<svg width="860" height="149" viewBox="0 0 860 149" fill="none" xmlns="http://www.w3.org/2000/svg">
<rect x="18.1499" y="20.6" width="823.2" height="107.8" fill="white"/>
<rect x="0.5" y="0.5" width="858.5" height="148" stroke="white"/>
<path d="M80.4719 92H85.5031V79.5791H92.1291C92.189 79.5791 92.2339 79.5791 92.2639 79.5791C92.3088 79.5791 92.3612 79.5791 92.4211 79.5791L99.0246 92H104.842L97.5871 78.793C99.5337 78.1341 101.061 76.9811 102.169 75.334C103.292 73.6868 103.854 71.7627 103.854 69.5615V69.5166C103.854 67.4801 103.412 65.7207 102.529 64.2383C101.66 62.7559 100.417 61.6104 98.8 60.8018C97.1828 59.9932 95.2736 59.5889 93.0724 59.5889H80.4719V92ZM85.5031 75.4238V63.8115H92.4211C94.3527 63.8115 95.8726 64.3281 96.9807 65.3613C98.1037 66.3796 98.6652 67.7796 98.6652 69.5615V69.6064C98.6652 71.4632 98.1336 72.9007 97.0705 73.9189C96.0073 74.9222 94.5099 75.4238 92.5783 75.4238H85.5031ZM108.728 92H129.302V87.6426H113.759V77.6025H128.471V73.3799H113.759V63.9463H129.302V59.5889H108.728V92ZM134.513 92H145.945C149.18 92 151.935 91.3636 154.211 90.0908C156.502 88.8031 158.254 86.9463 159.467 84.5205C160.68 82.0798 161.286 79.1523 161.286 75.7383V75.6934C161.286 72.2793 160.672 69.3743 159.445 66.9785C158.232 64.5827 156.48 62.7559 154.189 61.498C151.913 60.2253 149.165 59.5889 145.945 59.5889H134.513V92ZM139.544 87.6426V63.9463H145.474C147.765 63.9463 149.696 64.403 151.269 65.3164C152.856 66.2148 154.061 67.5475 154.885 69.3145C155.723 71.0664 156.143 73.2077 156.143 75.7383V75.7832C156.143 78.3288 155.731 80.485 154.907 82.252C154.084 84.0189 152.878 85.359 151.291 86.2725C149.704 87.1859 147.765 87.6426 145.474 87.6426H139.544ZM166.093 92H177.526C180.76 92 183.515 91.3636 185.791 90.0908C188.082 88.8031 189.834 86.9463 191.047 84.5205C192.26 82.0798 192.866 79.1523 192.866 75.7383V75.6934C192.866 72.2793 192.252 69.3743 191.025 66.9785C189.812 64.5827 188.06 62.7559 185.769 61.498C183.493 60.2253 180.745 59.5889 177.526 59.5889H166.093V92ZM171.124 87.6426V63.9463H177.054C179.345 63.9463 181.277 64.403 182.849 65.3164C184.436 66.2148 185.641 67.5475 186.465 69.3145C187.304 71.0664 187.723 73.2077 187.723 75.7383V75.7832C187.723 78.3288 187.311 80.485 186.487 82.252C185.664 84.0189 184.459 85.359 182.871 86.2725C181.284 87.1859 179.345 87.6426 177.054 87.6426H171.124ZM197.673 92H202.704V59.5889H197.673V92ZM208.679 92H213.688V68.0117H215.866L210.543 63.3174L230.488 92H235.138V59.5889H230.129V83.5098H227.95L233.274 88.2266L213.328 59.5889H208.679V92ZM255.061 92.5391C257.247 92.5391 259.201 92.2246 260.923 91.5957C262.66 90.9668 264.127 90.0459 265.325 88.833C266.538 87.6201 267.459 86.1452 268.088 84.4082C268.717 82.6712 269.031 80.7096 269.031 78.5234V75.1992H255.555V79.3096H264.045V79.8486C264.03 81.4808 263.641 82.9183 262.877 84.1611C262.128 85.389 261.08 86.3473 259.733 87.0361C258.4 87.7249 256.858 88.0693 255.106 88.0693C253.563 88.0693 252.178 87.7848 250.95 87.2158C249.723 86.6468 248.667 85.8232 247.783 84.7451C246.915 83.667 246.249 82.3643 245.784 80.8369C245.32 79.2946 245.088 77.5576 245.088 75.626V75.6035C245.088 73.0729 245.485 70.9092 246.279 69.1123C247.072 67.3005 248.21 65.9154 249.693 64.957C251.19 63.9987 252.964 63.5195 255.016 63.5195C257.127 63.5195 258.902 64.0361 260.339 65.0693C261.792 66.1025 262.855 67.555 263.529 69.4268L263.618 69.6738H268.807L268.717 69.292C268.268 67.3304 267.444 65.5785 266.246 64.0361C265.048 62.4938 263.506 61.2809 261.619 60.3975C259.733 59.499 257.531 59.0498 255.016 59.0498C251.946 59.0498 249.281 59.7236 247.02 61.0713C244.759 62.4189 243.014 64.3281 241.786 66.7988C240.558 69.2695 239.945 72.2119 239.945 75.626V75.6484C239.945 78.2539 240.296 80.5973 241 82.6787C241.704 84.7601 242.707 86.5345 244.01 88.002C245.328 89.4694 246.915 90.5924 248.772 91.3711C250.643 92.1497 252.74 92.5391 255.061 92.5391ZM285.001 92.5391C287.562 92.5391 289.763 92.1497 291.605 91.3711C293.461 90.5775 294.884 89.4619 295.872 88.0244C296.876 86.5719 297.377 84.8574 297.377 82.8809V82.8584C297.377 81.1813 297.04 79.7513 296.366 78.5684C295.693 77.3854 294.652 76.3971 293.244 75.6035C291.837 74.8099 290.017 74.181 287.786 73.7168L284.26 72.9531C282.238 72.5189 280.749 71.9199 279.79 71.1562C278.832 70.3926 278.353 69.4043 278.353 68.1914V68.1689C278.353 67.2106 278.622 66.3796 279.161 65.6758C279.7 64.972 280.464 64.4255 281.452 64.0361C282.441 63.6318 283.601 63.4297 284.934 63.4297C286.222 63.4297 287.352 63.6243 288.325 64.0137C289.299 64.388 290.085 64.9346 290.684 65.6533C291.298 66.3721 291.672 67.2406 291.807 68.2588L291.852 68.5508H296.771L296.748 68.1914C296.628 66.3646 296.067 64.7699 295.064 63.4072C294.06 62.0296 292.698 60.959 290.976 60.1953C289.254 59.4316 287.27 59.0498 285.024 59.0498C282.733 59.0498 280.704 59.4466 278.937 60.2402C277.17 61.0189 275.785 62.112 274.781 63.5195C273.778 64.9121 273.269 66.5293 273.254 68.3711V68.3936C273.254 70.7894 274.033 72.736 275.59 74.2334C277.147 75.7158 279.513 76.7939 282.688 77.4678L286.214 78.209C288.37 78.6732 289.913 79.2946 290.841 80.0732C291.784 80.8369 292.256 81.8701 292.256 83.1729V83.1953C292.256 84.1986 291.964 85.0745 291.38 85.8232C290.811 86.5719 290.002 87.1484 288.954 87.5527C287.906 87.957 286.656 88.1592 285.203 88.1592C283.766 88.1592 282.493 87.9645 281.385 87.5752C280.277 87.1859 279.378 86.6318 278.69 85.9131C278.016 85.1794 277.604 84.3184 277.454 83.3301L277.409 83.0381H272.49L272.513 83.375C272.648 85.2767 273.247 86.9163 274.31 88.2939C275.373 89.6566 276.81 90.7048 278.622 91.4385C280.449 92.1722 282.575 92.5391 285.001 92.5391ZM301.892 92H313.324C316.559 92 319.314 91.3636 321.59 90.0908C323.881 88.8031 325.633 86.9463 326.846 84.5205C328.059 82.0798 328.665 79.1523 328.665 75.7383V75.6934C328.665 72.2793 328.051 69.3743 326.823 66.9785C325.611 64.5827 323.859 62.7559 321.568 61.498C319.292 60.2253 316.544 59.5889 313.324 59.5889H301.892V92ZM306.923 87.6426V63.9463H312.853C315.144 63.9463 317.075 64.403 318.648 65.3164C320.235 66.2148 321.44 67.5475 322.264 69.3145C323.102 71.0664 323.522 73.2077 323.522 75.7383V75.7832C323.522 78.3288 323.11 80.485 322.286 82.252C321.463 84.0189 320.257 85.359 318.67 86.2725C317.083 87.1859 315.144 87.6426 312.853 87.6426H306.923ZM333.472 92H338.503V59.5889H333.472V92ZM344.478 92H365.052V87.6426H349.509V77.6025H364.221V73.3799H349.509V63.9463H365.052V59.5889H344.478V92ZM370.263 92H375.272V68.0117H377.45L372.127 63.3174L392.072 92H396.722V59.5889H391.713V83.5098H389.534L394.858 88.2266L374.912 59.5889H370.263V92ZM413.747 92.5391C416.308 92.5391 418.509 92.1497 420.351 91.3711C422.208 90.5775 423.63 89.4619 424.618 88.0244C425.622 86.5719 426.123 84.8574 426.123 82.8809V82.8584C426.123 81.1813 425.786 79.7513 425.112 78.5684C424.439 77.3854 423.398 76.3971 421.99 75.6035C420.583 74.8099 418.764 74.181 416.532 73.7168L413.006 72.9531C410.985 72.5189 409.495 71.9199 408.536 71.1562C407.578 70.3926 407.099 69.4043 407.099 68.1914V68.1689C407.099 67.2106 407.368 66.3796 407.907 65.6758C408.446 64.972 409.21 64.4255 410.198 64.0361C411.187 63.6318 412.347 63.4297 413.68 63.4297C414.968 63.4297 416.098 63.6243 417.071 64.0137C418.045 64.388 418.831 64.9346 419.43 65.6533C420.044 66.3721 420.418 67.2406 420.553 68.2588L420.598 68.5508H425.517L425.494 68.1914C425.375 66.3646 424.813 64.7699 423.81 63.4072C422.806 62.0296 421.444 60.959 419.722 60.1953C418 59.4316 416.016 59.0498 413.77 59.0498C411.479 59.0498 409.45 59.4466 407.683 60.2402C405.916 61.0189 404.531 62.112 403.528 63.5195C402.524 64.9121 402.015 66.5293 402 68.3711V68.3936C402 70.7894 402.779 72.736 404.336 74.2334C405.893 75.7158 408.259 76.7939 411.434 77.4678L414.96 78.209C417.116 78.6732 418.659 79.2946 419.587 80.0732C420.53 80.8369 421.002 81.8701 421.002 83.1729V83.1953C421.002 84.1986 420.71 85.0745 420.126 85.8232C419.557 86.5719 418.749 87.1484 417.7 87.5527C416.652 87.957 415.402 88.1592 413.949 88.1592C412.512 88.1592 411.239 87.9645 410.131 87.5752C409.023 87.1859 408.125 86.6318 407.436 85.9131C406.762 85.1794 406.35 84.3184 406.2 83.3301L406.155 83.0381H401.237L401.259 83.375C401.394 85.2767 401.993 86.9163 403.056 88.2939C404.119 89.6566 405.556 90.7048 407.368 91.4385C409.195 92.1722 411.321 92.5391 413.747 92.5391ZM437.758 92H442.812V63.9463H452.717V59.5889H427.853V63.9463H437.758V92ZM470.843 81.5557L477.199 74.2334H477.828L490.339 59.5889H484.364L471.315 75.0869H470.843V81.5557ZM466.126 92H471.157V59.5889H466.126V92ZM485.173 92H491.417L477.514 73.1328L473.92 76.5918L485.173 92ZM494.652 92H499.66V68.0117H501.839L496.516 63.3174L516.461 92H521.111V59.5889H516.102V83.5098H513.923L519.246 88.2266L499.301 59.5889H494.652V92ZM541.123 92.5391C544.238 92.5391 546.926 91.8577 549.187 90.4951C551.463 89.1325 553.215 87.2008 554.443 84.7002C555.67 82.1995 556.284 79.2347 556.284 75.8057V75.7607C556.284 72.3317 555.67 69.3743 554.443 66.8887C553.215 64.388 551.463 62.4564 549.187 61.0938C546.911 59.7311 544.223 59.0498 541.123 59.0498C538.009 59.0498 535.313 59.7311 533.037 61.0938C530.761 62.4414 529.002 64.3656 527.759 66.8662C526.531 69.3669 525.917 72.3317 525.917 75.7607V75.8057C525.917 79.2347 526.531 82.207 527.759 84.7227C528.987 87.2233 530.739 89.1549 533.015 90.5176C535.291 91.8652 537.994 92.5391 541.123 92.5391ZM541.123 88.0693C539.057 88.0693 537.275 87.5752 535.778 86.5869C534.28 85.5837 533.12 84.1611 532.296 82.3193C531.473 80.4775 531.061 78.3063 531.061 75.8057V75.7607C531.061 73.2451 531.473 71.0739 532.296 69.2471C533.12 67.4053 534.28 65.9902 535.778 65.002C537.29 64.0137 539.072 63.5195 541.123 63.5195C543.16 63.5195 544.927 64.0212 546.424 65.0244C547.936 66.0127 549.097 67.4277 549.905 69.2695C550.729 71.0964 551.141 73.2601 551.141 75.7607V75.8057C551.141 78.2913 550.737 80.4551 549.928 82.2969C549.119 84.1387 547.966 85.5612 546.469 86.5645C544.972 87.5677 543.19 88.0693 541.123 88.0693ZM565.808 81.5557L572.164 74.2334H572.793L585.304 59.5889H579.329L566.279 75.0869H565.808V81.5557ZM561.091 92H566.122V59.5889H561.091V92ZM580.138 92H586.382L572.479 73.1328L568.885 76.5918L580.138 92ZM594.333 81.5557L600.69 74.2334H601.319L613.829 59.5889H607.855L594.805 75.0869H594.333V81.5557ZM589.616 92H594.648V59.5889H589.616V92ZM608.663 92H614.907L601.004 73.1328L597.41 76.5918L608.663 92ZM618.142 92H638.716V87.6426H623.173V77.6025H637.885V73.3799H623.173V63.9463H638.716V59.5889H618.142V92ZM643.635 81.0615H658.077V76.6367H643.635V81.0615ZM663.827 92H668.859V77.6475H685.48V92H690.533V59.5889H685.48V73.29H668.859V59.5889H663.827V92ZM696.53 92H717.105V87.6426H701.562V77.6025H716.274V73.3799H701.562V63.9463H717.105V59.5889H696.53V92ZM722.316 92H727.347V59.5889H722.316V92ZM744.372 92.5391C746.933 92.5391 749.134 92.1497 750.976 91.3711C752.833 90.5775 754.255 89.4619 755.243 88.0244C756.247 86.5719 756.748 84.8574 756.748 82.8809V82.8584C756.748 81.1813 756.411 79.7513 755.737 78.5684C755.064 77.3854 754.023 76.3971 752.615 75.6035C751.208 74.8099 749.389 74.181 747.157 73.7168L743.631 72.9531C741.61 72.5189 740.12 71.9199 739.161 71.1562C738.203 70.3926 737.724 69.4043 737.724 68.1914V68.1689C737.724 67.2106 737.993 66.3796 738.532 65.6758C739.071 64.972 739.835 64.4255 740.823 64.0361C741.812 63.6318 742.972 63.4297 744.305 63.4297C745.593 63.4297 746.723 63.6243 747.696 64.0137C748.67 64.388 749.456 64.9346 750.055 65.6533C750.669 66.3721 751.043 67.2406 751.178 68.2588L751.223 68.5508H756.142L756.119 68.1914C756 66.3646 755.438 64.7699 754.435 63.4072C753.431 62.0296 752.069 60.959 750.347 60.1953C748.625 59.4316 746.641 59.0498 744.395 59.0498C742.104 59.0498 740.075 59.4466 738.308 60.2402C736.541 61.0189 735.156 62.112 734.153 63.5195C733.149 64.9121 732.64 66.5293 732.625 68.3711V68.3936C732.625 70.7894 733.404 72.736 734.961 74.2334C736.518 75.7158 738.884 76.7939 742.059 77.4678L745.585 78.209C747.741 78.6732 749.284 79.2946 750.212 80.0732C751.155 80.8369 751.627 81.8701 751.627 83.1729V83.1953C751.627 84.1986 751.335 85.0745 750.751 85.8232C750.182 86.5719 749.374 87.1484 748.325 87.5527C747.277 87.957 746.027 88.1592 744.574 88.1592C743.137 88.1592 741.864 87.9645 740.756 87.5752C739.648 87.1859 738.75 86.6318 738.061 85.9131C737.387 85.1794 736.975 84.3184 736.825 83.3301L736.78 83.0381H731.862L731.884 83.375C732.019 85.2767 732.618 86.9163 733.681 88.2939C734.744 89.6566 736.181 90.7048 737.993 91.4385C739.82 92.1722 741.946 92.5391 744.372 92.5391ZM768.383 92H773.437V63.9463H783.342V59.5889H758.478V63.9463H768.383V92Z" fill="#D30D00"/>
</svg>
